# xmcd
#
# Track frame offsets:
#	150
#	40951
#	88499
#	109451
#	171367
#	222855
#	265136
#	301687
#
# Disc length: 4407 seconds
#
# Revision: 1
# Processed by: cddbd v1.5.2PL0 Copyright (c) Steve Scherf et al.
# Submitted via: audiograbber 1.83.01
#
DISCID=71113508
DTITLE=Grateful Dead - 77-03-20 Winterland Arena, San Francisco CA
DYEAR=1900
DGENRE=
TTITLE0=Samson and Delilah
TTITLE1=Row Jimmy
TTITLE2=Promised Land
TTITLE3=St Stephen
TTITLE4=The Other One
TTITLE5=Stella Blue
TTITLE6=Around and Around
TTITLE7=US Blues
EXTD=
EXTT0=
EXTT1=
EXTT2=
EXTT3=
EXTT4=
EXTT5=
EXTT6=
EXTT7=
PLAYORDER=
